# xmcd
#
# Track frame offsets: 
#        150
#        21204
#        41069
#        60517
#
# Disc length: 1086 seconds
#
# Revision: 0
# Processed by: cddbd v1.5.2PL0 Copyright (c) Steve Scherf et al.
# Submitted via: ExactAudioCopyFreeDBPlugin 1.0
#
DISCID=2c043c04
DTITLE=miwa - ミラクル
DYEAR=2013
DGENRE=
TTITLE0=ミラクル
TTITLE1=スマイル
TTITLE2=カラ*フル ～MY STYLE ver.～
TTITLE3=ミラクル ～instrumental～
EXTD=
EXTT0=
EXTT1=
EXTT2=
EXTT3=
PLAYORDER=
